<?xml version="1.0" encoding="UTF-8" standalone="no"?>
<svg
   version="1.0"
   width="390.000000pt"
   height="374.000000pt"
   viewBox="0 0 390.000000 374.000000"
   preserveAspectRatio="xMidYMid meet"
   id="svg10"
   sodipodi:docname="enot_white.svg"
   inkscape:version="1.3 (0e150ed6c4, 2023-07-21)"
   xmlns:inkscape="http://www.inkscape.org/namespaces/inkscape"
   xmlns:sodipodi="http://sodipodi.sourceforge.net/DTD/sodipodi-0.dtd"
   xmlns="http://www.w3.org/2000/svg"
   xmlns:svg="http://www.w3.org/2000/svg">
  <defs
     id="defs10" />
  <sodipodi:namedview
     id="namedview10"
     pagecolor="#ffffff"
     bordercolor="#000000"
     borderopacity="0.25"
     inkscape:showpageshadow="2"
     inkscape:pageopacity="0.0"
     inkscape:pagecheckerboard="0"
     inkscape:deskcolor="#d1d1d1"
     inkscape:document-units="pt"
     inkscape:zoom="3.796123"
     inkscape:cx="259.8704"
     inkscape:cy="249.33333"
     inkscape:window-width="3840"
     inkscape:window-height="2089"
     inkscape:window-x="-8"
     inkscape:window-y="-8"
     inkscape:window-maximized="1"
     inkscape:current-layer="svg10" />
  <g
     transform="translate(0.000000,374.000000) scale(0.100000,-0.100000)"
     fill="#000000"
     stroke="none"
     id="g10"
     style="fill:#ffffff;fill-opacity:1">
    <path
       d="M1765 3499 c-194 -18 -452 -84 -636 -163 -183 -78 -269 -135 -396 -262 -78 -79 -98 -106 -136 -186 -55 -114 -69 -173 -70 -291 -1 -205 81 -336 268 -428 182 -89 372 -103 501 -36 52 27 138 112 166 164 89 163 74 364 -35 474 -81 83 -246 134 -354 109 -64 -14 -92 -29 -141 -74 -62 -58 -91 -197 -57 -270 33 -69 121 -88 198 -43 53 31 97 34 120 9 50 -56 -29 -122 -144 -122 -76 0 -121 18 -170 70 -85 87 -102 212 -44 318 36 65 76 103 151 141 67 34 145 41 234 20 123 -28 246 -122 301 -231 81 -160 49 -386 -72 -507 -121 -120 -290 -184 -522 -198 l-109 -6 9 -36 c4 -20 8 -70 8 -111 -1 -81 -18 -126 -71 -189 -14 -18 -24 -34 -21 -38 10 -10 167 18 247 44 253 82 509 302 609 525 60 132 81 334 48 449 -42 141 -185 282 -353 345 -139 52 -315 19 -433 -83 -123 -104 -147 -329 -51 -460 57 -78 224 -129 324 -99 87 26 146 91 146 160 0 27 -44 86 -65 86 -17 0 -72 46 -85 70 -22 41 19 67 79 50 18 -5 52 -25 76 -44 34 -28 45 -46 55 -86 24 -100 -17 -213 -98 -267 -72 -48 -223 -37 -358 26 -141 66 -188 147 -182 316 3 85 7 108 31 157 53 107 171 202 290 234 61 16 192 11 258 -10 114 -36 251 -126 332 -220 117 -136 270 -399 370 -635 l27 -63 35 31 c19 17 60 38 90 46 30 9 55 18 55 21 0 12 -79 159 -123 229 -186 293 -405 507 -621 610 -113 53 -184 68 -311 63 -105 -4 -115 -6 -195 -45 -93 -45 -188 -127 -234 -201 -43 -69 -59 -151 -54 -272 6 -123 26 -176 91 -240 48 -46 148 -101 226 -124 145 -43 320 9 386 113 31 50 46 110 48 191 2 57 -2 72 -26 108 -31 48 -77 80 -160 110 -78 29 -117 28 -152 -4 -27 -25 -27 -27 -21 -104 7 -75 6 -79 -16 -94 -13 -8 -34 -12 -50 -9 -90 18 -89 165 2 247 54 49 107 62 193 47 220 -37 340 -209 278 -400 -39 -118 -129 -228 -207 -251 -193 -58 -410 0 -542 144 -70 76 -96 143 -100 262 -7 171 33 288 135 395 124 131 285 203 521 234 323 43 696 -15 960 -149 28 -14 58 -26 67 -26 14 0 14 3 1 29 -9 16 -18 47 -22 68 -12 77 34 221 85 267 43 39 24 50 -139 81 -105 20 -312 27 -445 14z"
       id="path1"
       style="fill:#ffffff;fill-opacity:1" />
    <path
       d="M2466 3369 c5 -19 9 -72 9 -119 0 -73 -4 -93 -29 -143 -15 -32 -34 -61 -42 -64 -8 -3 -14 -9 -14 -14 0 -17 67 -9 186 22 110 29 128 31 234 26 153 -7 223 -30 322 -105 57 -43 82 -90 73 -134 -10 -43 -71 -108 -102 -108 -23 0 -25 3 -19 33 20 102 19 113 -6 140 -56 60 -194 97 -366 97 -94 0 -124 -4 -183 -25 -40 -13 -78 -30 -85 -36 -24 -19 -16 -36 20 -43 43 -8 142 -72 182 -118 17 -20 39 -57 49 -82 10 -25 22 -46 26 -46 5 0 33 22 62 48 68 62 167 122 201 122 23 0 26 -4 26 -36 0 -119 102 -155 191 -68 49 48 69 90 69 148 0 130 -138 266 -407 401 -112 56 -286 119 -362 131 l-43 7 8 -34z"
       id="path2"
       style="fill:#ffffff;fill-opacity:1" />
    <path
       d="M2065 2947 c-17 -7 -47 -22 -67 -35 -40 -25 -73 -81 -57 -97 6 -5 49 -10 97 -10 76 1 95 5 154 32 65 31 106 72 94 92 -18 29 -163 40 -221 18z"
       id="path3"
       style="fill:#ffffff;fill-opacity:1" />
    <path
       d="M2334 2829 c-24 -30 -63 -148 -73 -222 -41 -294 54 -601 244 -793 166 -168 334 -245 500 -230 219 20 389 118 459 266 28 60 31 73 30 165 0 125 -20 173 -100 250 -66 64 -134 99 -223 115 -111 20 -189 -7 -268 -93 -58 -63 -77 -103 -76 -163 1 -86 60 -164 125 -164 12 0 48 13 78 30 80 43 140 38 140 -12 0 -34 -31 -66 -83 -87 -65 -25 -74 -27 -117 -17 -115 27 -220 139 -220 236 0 130 190 313 339 328 157 15 352 -102 423 -255 106 -225 24 -440 -216 -572 -144 -80 -291 -111 -551 -116 -166 -3 -218 0 -409 20 l-69 8 8 -29 c11 -41 7 -85 -10 -111 -12 -17 -12 -24 -2 -30 23 -14 396 -7 522 11 363 51 623 174 747 354 125 181 92 477 -69 621 -99 89 -251 154 -353 153 -97 -1 -224 -61 -312 -148 -47 -45 -97 -145 -102 -202 -9 -114 34 -193 151 -274 91 -62 160 -67 258 -18 99 49 145 100 145 160 0 45 -10 54 -85 80 -72 25 -85 35 -85 70 0 30 23 54 58 63 85 20 202 -104 202 -214 0 -47 -30 -101 -89 -160 -49 -49 -69 -61 -130 -79 -168 -51 -317 14 -430 190 -42 64 -65 143 -55 188 25 123 68 199 151 270 152 130 354 157 528 69 233 -117 343 -276 362 -522 25 -340 -269 -822 -630 -1033 l-67 -40 47 -11 c116 -29 251 -163 283 -281 6 -24 9 -22 82 50 242 241 398 672 398 1099 0 153 -23 279 -73 404 -45 112 -92 181 -178 262 -228 214 -470 255 -697 118 -91 -55 -192 -159 -233 -240 -32 -62 -34 -74 -34 -163 0 -87 3 -101 32 -160 46 -94 127 -172 232 -223 84 -41 89 -42 186 -42 100 0 101 0 172 42 123 74 186 165 187 273 1 86 -30 149 -99 200 -147 109 -281 65 -273 -89 2 -47 -1 -64 -16 -80 -50 -55 -123 2 -110 84 20 122 108 195 237 195 90 0 148 -23 216 -86 79 -73 105 -132 105 -239 0 -94 -17 -134 -87 -207 -89 -92 -196 -138 -322 -138 -136 0 -261 50 -365 147 -79 73 -109 120 -132 207 -38 146 -16 313 65 487 l45 96 -72 21 c-114 33 -128 47 -224 211 -6 11 -9 11 -18 0z"
       id="path4"
       style="fill:#ffffff;fill-opacity:1" />
    <path
       d="M292 2387 c-79 -30 -141 -121 -178 -262 -26 -99 -27 -423 -1 -543 10 -45 22 -94 27 -108 l10 -25 37 37 c20 20 66 51 102 68 59 27 76 31 158 31 51 0 93 3 93 7 0 10 -57 67 -129 128 -108 93 -191 263 -191 389 0 71 22 166 44 190 36 40 132 45 194 12 30 -16 25 -45 -8 -49 -101 -10 -130 -42 -130 -140 0 -108 80 -307 153 -382 32 -33 125 -100 139 -100 4 0 7 42 6 93 -2 120 17 179 79 242 37 37 44 48 32 56 -17 11 -78 29 -99 29 -25 0 -180 82 -190 100 -8 15 -2 23 34 44 44 25 76 64 76 89 0 21 -38 65 -71 83 -40 20 -146 27 -187 11z"
       id="path5"
       style="fill:#ffffff;fill-opacity:1" />
    <path
       d="M2170 2105 c-18 -19 -53 -42 -77 -52 -23 -10 -43 -21 -43 -25 0 -4 16 -20 35 -35 87 -70 125 -162 105 -258 -22 -105 -94 -153 -216 -143 -50 4 -61 9 -91 41 -38 42 -45 90 -14 106 22 12 51 -14 51 -46 0 -29 23 -45 73 -50 88 -9 154 75 145 184 -5 63 -26 94 -90 141 -138 98 -342 42 -601 -166 -37 -30 -66 -60 -64 -66 2 -6 18 -12 35 -13 42 -4 109 -38 122 -63 17 -31 27 -24 39 26 27 105 77 171 176 232 54 33 67 37 130 37 110 0 177 -48 192 -137 6 -41 -19 -103 -49 -119 -42 -22 -64 38 -33 91 25 44 19 78 -17 100 -92 56 -204 24 -254 -71 -53 -103 -34 -209 51 -295 74 -75 268 -164 354 -164 18 0 21 6 21 48 0 28 7 59 19 78 l19 31 -103 -5 c-86 -4 -115 -1 -174 17 -88 27 -146 75 -161 133 -22 81 51 208 120 208 76 0 80 -32 7 -65 -56 -25 -77 -53 -77 -106 0 -90 90 -159 207 -159 108 1 175 41 226 135 19 34 22 56 22 155 0 106 -23 259 -44 297 -5 10 -16 3 -41 -22z"
       id="path6"
       style="fill:#ffffff;fill-opacity:1" />
    <path
       d="M1296 1578 c-156 -240 -240 -499 -240 -738 1 -128 18 -208 65 -303 38 -77 48 -91 121 -165 74 -74 164 -123 274 -148 99 -21 219 -15 288 15 65 29 171 100 220 148 135 131 123 402 -23 552 -73 75 -120 96 -216 95 -71 0 -89 -4 -155 -36 -127 -60 -155 -101 -154 -223 1 -119 36 -189 99 -201 38 -7 65 6 115 53 40 38 71 42 100 13 66 -66 -26 -161 -156 -161 -141 0 -239 117 -238 286 0 62 5 89 23 123 70 137 196 198 388 190 115 -5 149 -18 221 -87 100 -96 144 -202 145 -346 0 -190 -87 -316 -288 -417 -174 -88 -354 -89 -541 -3 -108 49 -182 104 -281 209 -302 319 -475 662 -509 1010 l-6 59 -51 -50 c-29 -27 -64 -57 -78 -65 -41 -26 -128 -48 -186 -48 l-54 0 7 -37 c9 -49 56 -178 89 -243 191 -377 666 -796 1047 -924 274 -92 584 -33 778 150 113 107 159 227 146 384 -16 208 -133 393 -283 450 -218 82 -497 -19 -594 -215 -30 -61 -31 -70 -27 -152 9 -193 125 -324 287 -326 107 -1 217 57 248 130 28 69 -17 148 -99 172 -63 19 -87 101 -36 120 37 13 78 -1 127 -45 73 -66 101 -160 72 -237 -37 -96 -119 -165 -221 -187 -168 -36 -322 39 -394 190 -29 60 -31 73 -31 175 0 104 2 114 32 176 61 122 193 225 339 263 221 57 461 -52 658 -298 l70 -86 40 39 c58 57 123 81 235 89 54 4 96 12 98 18 5 16 -175 184 -240 222 -202 121 -510 191 -707 161 -204 -30 -403 -129 -488 -242 -86 -116 -128 -292 -102 -433 24 -131 100 -230 231 -299 71 -38 78 -40 169 -40 86 0 101 3 162 32 85 40 160 110 194 180 23 46 26 62 21 119 -15 193 -168 312 -320 249 -29 -12 -47 -60 -47 -127 0 -41 -5 -71 -16 -86 -46 -67 -115 28 -95 132 11 58 46 97 119 132 176 83 324 5 386 -207 24 -78 21 -202 -5 -256 -45 -94 -200 -196 -327 -215 -131 -21 -303 36 -396 129 -56 57 -112 165 -127 248 -17 89 -6 266 21 345 51 149 133 293 269 470 72 94 78 105 58 108 -69 8 -89 16 -131 53 l-46 40 -54 -83z"
       id="path7"
       style="fill:#ffffff;fill-opacity:1" />
    <path
       d="M667 1559 c-22 -13 -22 -36 3 -103 23 -60 69 -107 134 -137 42 -19 92 -24 112 -11 16 10 -17 97 -55 143 -55 66 -161 126 -194 108z"
       id="path8"
       style="fill:#ffffff;fill-opacity:1" />
    <path
       d="M2914 1248 c-58 -69 -89 -198 -65 -271 22 -66 57 -58 117 28 32 48 39 66 42 120 3 51 0 73 -18 110 -12 25 -28 45 -35 45 -7 0 -26 -15 -41 -32z"
       id="path9"
       style="fill:#ffffff;fill-opacity:1" />
    <path
       d="M2779 804 c-13 -14 -57 -42 -98 -62 -64 -32 -84 -37 -145 -37 -39 0 -81 4 -94 8 -34 13 -38 -13 -14 -96 25 -89 36 -201 22 -227 -11 -20 -11 -20 -53 1 -57 30 -111 30 -139 1 -35 -34 -32 -122 5 -185 69 -117 212 -142 416 -73 155 53 381 198 513 329 l73 71 -42 8 c-106 18 -241 117 -287 210 l-26 51 -14 -35 c-8 -19 -22 -77 -31 -129 -35 -208 -167 -386 -334 -449 -71 -26 -139 -24 -173 6 -43 39 -74 143 -47 160 6 3 27 -9 47 -29 67 -63 98 -70 164 -36 88 45 199 174 258 301 22 48 32 86 37 145 7 90 -2 105 -38 67z"
       id="path10"
       style="fill:#ffffff;fill-opacity:1" />
  </g>
</svg>
